<?xml version="1.0" encoding="utf-8"?>
<!-- Generator: Adobe Illustrator 25.0.0, SVG Export Plug-In . SVG Version: 6.00 Build 0)  -->
<svg id="Layer_1" 
	version="1.1" 
	xmlns="http://www.w3.org/2000/svg" 
	xmlns:xlink="http://www.w3.org/1999/xlink" 
	x="0px" y="0px"
	viewBox="0 0 250 150" 
	style="enable-background:new 0 0 250 150;" 
	xml:space="preserve">
<style type="text/css">
	.circle-left{fill:#7F017F;}
	.circle-middle{fill:#7F017F;}
	.circle-right{fill:#7F017F;}
	.circle-background-color{fill:#8E898D;}
	.text{fill:#FFFFFF;}
</style>
<g>
	<g id="circle-left">
		<ellipse class="circle-background-color" transform="matrix(0.1602 -0.9871 0.9871 0.1602 -31.3295 113.1765)" cx="50.85" cy="75" rx="43.72" ry="43.72"/>
		<path class="circle-left" d="M50.85,35.66c21.69,0,39.34,17.65,39.34,39.34s-17.65,39.34-39.34,39.34S11.51,96.69,11.51,75
			S29.16,35.66,50.85,35.66 M50.85,26.89C24.28,26.89,2.74,48.43,2.74,75s21.54,48.11,48.11,48.11S98.96,101.57,98.96,75
			S77.42,26.89,50.85,26.89L50.85,26.89z"/>
	</g>
	<g id="circle-middle">
		<circle class="circle-background-color" cx="125.01" cy="75" r="43.72"/>
		<g>
			<path class="circle-middle" d="M125.01,35.66c21.69,0,39.34,17.65,39.34,39.34s-17.65,39.34-39.34,39.34S85.67,96.69,85.67,75
				S103.31,35.66,125.01,35.66 M125.01,26.89c-26.57,0-48.11,21.54-48.11,48.11s21.54,48.11,48.11,48.11s48.11-21.54,48.11-48.11
				S151.58,26.89,125.01,26.89L125.01,26.89z"/>
		</g>
	</g>
	<g id="circle-right">
		<circle class="circle-background-color" cx="199.15" cy="75" r="43.72"/>
		<g>
			<path class="circle-right" d="M199.15,35.66c21.69,0,39.34,17.65,39.34,39.34s-17.65,39.34-39.34,39.34S159.82,96.69,159.82,75
				S177.46,35.66,199.15,35.66 M199.15,26.89c-26.57,0-48.11,21.54-48.11,48.11s21.54,48.11,48.11,48.11s48.11-21.54,48.11-48.11
				S225.72,26.89,199.15,26.89L199.15,26.89z"/>
		</g>
	</g>
	<g>
		<g>
			<path class="text" d="M44.47,65.41h-13.6v-7.46H67.4v7.46H53.85v31.16h-9.38V65.41z"/>
		</g>
	</g>
	<g>
		<g>
			<path class="text" d="M111.65,57.95h19.98c8.98,0,14.95,4.54,14.95,12.14c0,7.9-5.62,12.63-15.1,12.63h-10.42v13.86h-9.42V57.95z
				 M121.07,75.43h9.69c3.97,0,6.48-1.36,6.48-5.2c0-3.13-1.92-5.06-6.48-5.06h-9.69V75.43z"/>
		</g>
	</g>
	<g>
		<g>
			<path class="text" d="M181.39,96.57l-10.99-38.62h9.83c2.27,8.92,6.15,23.22,7.02,30.19h0.05c1.27-7.12,5.25-21.21,7.87-30.19
				h8.92c2.43,8.5,6.72,24.26,7.77,29.89h0.1c1.12-7.04,4.9-21.24,7.13-29.89h9.43l-11.68,38.62h-10.14
				c-2.48-8.52-6.42-23.22-7.68-28.78H199c-1.17,6.57-4.79,19.3-7.53,28.78H181.39z"/>
		</g>
	</g>
</g>
</svg>
